<svg xmlns="http://www.w3.org/2000/svg" xmlns:xlink="http://www.w3.org/1999/xlink" id="icon_magnifying_glass-Layer_1" xml:space="preserve" viewBox="0 0 72 72" version="1.1" y="0px" x="0px" enable-background="new 0 0 72 72" width="32" height="32"><g fill="#22A1CE">	<circle cy="32.6" cx="32.5" r="10.3"/>	<path d="m36 0c-19.9 0-36 16.1-36 36s16.1 36 36 36 36-16.1 36-36-16.1-36-36-36zm18.2 54.3c-1.3 1.3-3.3 1.3-4.5 0l-8.4-8.4-0.1-0.1c-2.5 1.6-5.5 2.6-8.7 2.6-8.7 0-15.8-7.1-15.8-15.8s7.1-15.8 15.8-15.8 15.8 7.1 15.8 15.8c0 3.2-1 6.2-2.6 8.7l0.1 0.1 8.4 8.4c1.3 1.2 1.3 3.2 0 4.5z"/></g></svg>