<svg xmlns="http://www.w3.org/2000/svg" xmlns:xlink="http://www.w3.org/1999/xlink" id="icon_email-Layer_1" xml:space="preserve" viewBox="0 0 72 72" version="1.1" y="0px" x="0px" enable-background="new 0 0 72 72" width="32" height="32"><path d="m36 0c-19.9 0-36 16.1-36 36s16.1 36 36 36 36-16.1 36-36-16.1-36-36-36zm-19.5 21.2h38.9c0.3 0 0.5 0 0.8 0.1l-14.5 12.4-1.9 1.5-3.8 3.2-3.8-3.1-1.9-1.5-14.5-12.5c0.2 0 0.4-0.1 0.7-0.1zm-2.6 27.2v-24.5s0-0.3 0.1-0.8l14.4 12.4-14.4 13.8c-0.1-0.4-0.1-0.7-0.1-0.9zm41.5 2.6h-38.9c-0.2 0-0.5 0-0.7-0.1l14.6-13.9 5.6 4.6 5.6-4.6 14.5 13.9c-0.2 0.1-0.4 0.1-0.7 0.1zm2.6-2.6c0 0.3 0 0.5-0.1 0.9l-14.4-13.9 14.4-12.4c0.1 0.3 0.1 0.5 0.1 0.8v24.6z" fill="#22A1CE"/></svg>