<svg xmlns="http://www.w3.org/2000/svg" xmlns:xlink="http://www.w3.org/1999/xlink" id="icon_share_inverse-Layer_1" xml:space="preserve" viewBox="0 0 72 72" version="1.1" y="0px" x="0px" enable-background="new 0 0 72 72" width="32" height="32"><path d="m30.1 35.7v0.3l13.8 7.2c1.3-1.4 3.1-2.3 5.2-2.3 4 0 7.2 3.4 7.2 7.5 0 4.2-3.2 7.5-7.2 7.5-3.9 0-7.1-3.3-7.2-7.3l-14.1-7.4c-1.3 1.2-3 2-4.8 2-4 0-7.2-3.4-7.2-7.5s3.2-7.5 7.2-7.5c2 0 3.7 0.8 5 2.2l13.9-7.1c0.2-4 3.3-7.2 7.2-7.2 4 0 7.2 3.4 7.2 7.5 0 4.2-3.2 7.5-7.2 7.5-2.1 0-4-0.9-5.3-2.4l-13.7 7v0z" fill="#22A1CE"/></svg>