<svg xmlns="http://www.w3.org/2000/svg" xmlns:xlink="http://www.w3.org/1999/xlink" id="icon_calendar-Layer_1" xml:space="preserve" viewBox="0 0 72 72" version="1.1" y="0px" x="0px" enable-background="new 0 0 72 72" width="32" height="32"><g fill="#22A1CE">	<path d="m52.5 32.6c0-1.5-0.9-2.1-2.1-2.1h-14.4-14.6c-0.2 0-0.5 0-0.7 0.1-0.9 0.2-1.3 0.9-1.3 2v17.1c0 0.9 0.2 1.7 0.9 2.4s1.7 0.9 2.6 0.9h25.7c0.4 0 0.9 0 1.3-0.1 1.2-0.1 2.4-1.3 2.5-2.5 0-0.5 0.1-0.9 0.1-1.4v-13.8-2.6zm-20 2.6c0-0.9 0.8-1.7 1.7-1.7h1.7 1.7c0.9 0 1.7 0.8 1.8 1.7v3.3c0 0.9-0.8 1.7-1.7 1.7h-3.3c-0.9 0-1.7-0.8-1.7-1.7-0.2-1.1-0.2-2.2-0.2-3.3zm-3.4 13.5c0 0.9-0.8 1.7-1.8 1.7h-1.7-1.6c-1 0-1.8-0.8-1.8-1.8v-3.3c0-1 0.8-1.8 1.8-1.8h3.3c1 0 1.8 0.8 1.8 1.8v3.4zm0-10.2c0 1-0.8 1.8-1.8 1.8h-3.3c-1 0-1.8-0.8-1.8-1.8v-3.3c0-1 0.8-1.8 1.8-1.8h3.3c0.9 0 1.7 0.8 1.7 1.8v1.7c0.1 0.5 0.1 1 0.1 1.6zm10.2 10.2c0 1-0.8 1.8-1.8 1.8h-3.3c-0.9 0-1.7-0.8-1.7-1.8v-3.3c0-0.9 0.8-1.7 1.7-1.8h1.7 1.6c1 0 1.8 0.8 1.8 1.8v3.3zm10.2 0c0 1-0.8 1.8-1.8 1.8h-3.3c-0.9 0-1.7-0.8-1.7-1.8v-1.7-1.6c0-1 0.8-1.8 1.8-1.8h3.3c1 0 1.8 0.8 1.8 1.8-0.1 1.1-0.1 2.2-0.1 3.3zm0-10.2c0 1-0.8 1.8-1.8 1.8h-3.3c-1 0-1.8-0.8-1.8-1.8v-3.3c0-0.9 0.8-1.7 1.8-1.7h1.7 1.6c1 0 1.8 0.8 1.8 1.8v3.2z"/>	<path d="m36 0c-19.9 0-36 16.1-36 36s16.1 36 36 36c19.9 0 36-16.1 36-36s-16.1-36-36-36zm4.9 18.6c0-1 0.8-1.8 1.8-1.8h2c1 0 1.8 0.8 1.8 1.8v5.2c0 1.1-0.8 1.9-1.9 2h-1.8c-1.1 0-1.9-0.8-1.9-1.9v-2.6c0-1-0.1-1.8 0-2.7zm-14.6 0c0-1 0.8-1.8 1.8-1.8h2c1 0 1.8 0.8 1.8 1.8v5.2c0 1-0.6 1.8-1.6 1.9-0.8 0.1-1.6 0.1-2.4 0-0.9-0.2-1.5-0.9-1.5-1.8v-2.6c-0.2-1-0.2-1.8-0.1-2.7zm29.4 31.5c0 3.3-2.7 6.1-6.1 6.1h-13.6s-9.1 0-13.6 0c-3.3 0-6.1-2.8-6.1-6v-24.1c0-3.3 2.8-6.1 6-6.1h1.7c0.3 0 0.4 0.1 0.4 0.4v3.2c0 1.1 0.3 2 1 2.8 0.6 0.7 1.4 1.1 2.3 1.1s1.9 0.1 2.8-0.1c1.6-0.3 2.8-1.7 2.9-3.2 0.1-1.3 0-2.5 0-3.8 0-0.3 0.1-0.5 0.5-0.5h4.5c0.4 0 0.5 0.1 0.5 0.5v3.1c0 1.3 0.4 2.4 1.5 3.2 0.5 0.4 1.1 0.7 1.8 0.7 0.9 0 1.9 0.1 2.8 0 1.6-0.3 2.9-1.6 3-3.3 0.1-1.2 0-2.5 0-3.7 0-0.4 0.1-0.4 0.5-0.5 1.5-0.1 3 0.2 4.2 1.1 1.8 1.2 2.7 2.9 2.7 5.1 0.3 8 0.3 16 0.3 24z"/></g></svg>