<svg xmlns="http://www.w3.org/2000/svg" xmlns:xlink="http://www.w3.org/1999/xlink" id="icon_chat_forum-Layer_1" xml:space="preserve" viewBox="0 0 72 72" version="1.1" y="0px" x="0px" enable-background="new 0 0 72 72" width="32" height="32"><path d="m36 0c-19.9 0-36 16.1-36 36s16.1 36 36 36c19.9 0 36-16.1 36-36s-16.1-36-36-36zm-13.4 34.2v7.2l-4.2 4.6v-6.4c-2.1-0.9-3.6-3-3.6-5.4v-5.9c0-3.3 2.7-5.9 5.9-5.9h14.1c1.4 0 2.7 0.5 3.7 1.3h-5.4c-5.8-0.1-10.5 4.6-10.5 10.5zm34.3 8.2c0 2.9-1.8 5.4-4.3 6.5v7.6l-6.2-7.1h-13.3c-3.9 0-7.1-3.2-7.1-7.1v-8.3c0-3.9 3.2-7.1 7.1-7.1h16.6c3.9 0 7.1 3.2 7.1 7.1v8.4z" fill="#22A1CE"/></svg>