<svg xmlns="http://www.w3.org/2000/svg" xmlns:xlink="http://www.w3.org/1999/xlink" id="icon_google_plus-Layer_1" xml:space="preserve" viewBox="0 0 72 72" version="1.1" y="0px" x="0px" enable-background="new 0 0 72 72" width="32" height="32"><g fill="#22A1CE">	<path d="m37.4 47.1l-0.6-0.9c-0.2-0.2-0.4-0.5-0.7-0.8-0.4-0.4-0.7-0.6-0.8-0.7l-0.3-0.3c-0.1-0.1-0.3-0.3-0.5-0.4l-0.9-0.6c-0.1-0.1-0.2-0.1-0.3-0.3-0.1-0.1-0.3-0.2-0.6-0.3l-0.8-0.6h-0.6-0.8c-1 0-1.9 0.1-2.9 0.2-0.9 0.1-1.9 0.4-3 0.7-1.5 0.5-2.7 1.2-3.7 2.1-1 1-1.5 2.3-1.5 4 0 1.3 0.3 2.4 0.9 3.3s1.5 1.7 2.5 2.3c2.1 1.1 4.4 1.6 6.8 1.6 1 0 2-0.1 3.1-0.3 1-0.2 1.9-0.6 2.7-1.1s1.5-1.1 2-1.9 0.8-1.8 0.8-3c0-0.8-0.1-1.5-0.4-2.1-0.1-0.4-0.3-0.7-0.4-0.9z"/>	<path d="m33.8 30.9c0.8-1.1 1.2-2.5 1.2-4.4 0-1.1-0.2-2.2-0.5-3.5-0.3-1.2-0.8-2.4-1.3-3.6-0.5-1.1-1.3-2.1-2.2-2.8-1-0.7-2.1-1.1-3.3-1.1-1.7 0-3 0.6-4 1.9-0.9 1.4-1.4 2.9-1.4 4.6 0 1 0.2 2.2 0.5 3.4s0.8 2.4 1.5 3.4c0.6 1.1 1.4 1.9 2.4 2.7s2 1.1 3.2 1.1c1.8 0 3.1-0.6 3.9-1.7z"/>	<path d="m36 0c-19.9 0-36 16.1-36 36s16.1 36 36 36 36-16.1 36-36-16.1-36-36-36zm2.2 55.4c-2.7 2.4-6.6 3.6-11.4 3.6-1.3 0-2.7-0.1-4.1-0.4s-2.8-0.8-4-1.5c-1.3-0.7-2.3-1.6-3.1-2.7s-1.2-2.4-1.2-4c0-1.1 0.3-2.4 1-3.7 0.6-1.1 1.4-2.1 2.6-3 1.1-0.9 2.5-1.5 4-2 2.8-0.9 5.6-1.3 8.3-1.4-1.1-1.4-1.7-2.7-1.7-4 0-0.6 0.1-0.9 0.2-1.1s0.1-0.4 0.2-0.6c0.1-0.3 0.2-0.4 0.2-0.6-0.4 0.1-0.8 0.1-1.1 0.1h-0.9c-2.7 0-5-0.9-7-2.7-1.9-1.7-2.8-4-2.8-6.7 0-2.5 0.9-4.8 2.6-6.8s3.8-3.3 6.4-3.9c1.7-0.3 3.4-0.5 5.1-0.5h11.9l-3.7 2.1h-3.7c1.3 0.8 2.3 1.9 3 3.4 0.7 1.6 1.1 3.1 1.1 4.6 0 1.4-0.2 2.6-0.6 3.6s-1 1.9-1.6 2.5c-0.9 1-1.7 1.8-2.6 2.6s-1.3 1.7-1.3 2.7c0 0.9 0.4 1.6 1.3 2.3s1.8 1.5 2.8 2.4 2 1.9 2.8 3.2c0.9 1.2 1.3 2.8 1.3 4.7-0.1 3-1.4 5.6-4 7.8zm21.5-31.3h-7v7h-3.5v-7h-7v-3.4h7v-7h3.5v7h7v3.4z"/></g></svg>