<svg xmlns="http://www.w3.org/2000/svg" xmlns:xlink="http://www.w3.org/1999/xlink" id="icon_share-Layer_1" xml:space="preserve" viewBox="0 0 72 72" version="1.1" y="0px" x="0px" enable-background="new 0 0 72 72" width="32" height="32"><path d="m36 0c-19.9 0-36 16.1-36 36s16.1 36 36 36 36-16.1 36-36-16.1-36-36-36zm-8.8 35.8v0.3l14.2 7.4c1.3-1.5 3.2-2.4 5.3-2.4 4.1 0 7.4 3.5 7.4 7.8s-3.3 7.8-7.4 7.8c-4 0-7.3-3.4-7.4-7.6l-14.5-7.6c-1.3 1.3-3.1 2-5 2-4.1 0-7.4-3.5-7.4-7.8s3.3-7.8 7.4-7.8c2 0 3.9 0.9 5.2 2.2l14.3-7.1c0.2-4.1 3.4-7.4 7.4-7.4 4.1 0 7.4 3.5 7.4 7.8s-3.3 7.8-7.4 7.8c-2.1 0-4.1-1-5.4-2.5l-14.1 7.1z" fill="#22A1CE"/></svg>