<svg xmlns="http://www.w3.org/2000/svg" xmlns:xlink="http://www.w3.org/1999/xlink" id="icon_blog-Layer_1" xml:space="preserve" viewBox="0 0 72 72" version="1.1" y="0px" x="0px" enable-background="new 0 0 72 72" width="32" height="32"><path d="m36 0c-19.9 0-36 16.1-36 36s16.1 36 36 36 36-16.1 36-36-16.1-36-36-36zm-2.4 46.5c0 4.5-3.6 8.1-8.1 8.1s-8.1-3.6-8.1-8.1v-13.6h5.9v13.6c0 1.2 1 2.1 2.1 2.1 1.2 0 2.1-1 2.1-2.1s-1-2.1-2.1-2.1c-0.5 0-1 0.2-1.3 0.5v-6.3c0.4-0.1 0.9-0.1 1.3-0.1h0.8c4.2 0.4 7.4 3.8 7.4 8zm10.5 0.7h-5.5c-0.4-5.3-3.4-9.9-7.6-12.6-0.4-0.2-0.8-0.5-1.2-0.7-0.8-0.4-1.7-0.8-2.5-1.1-0.9-0.3-1.8-0.5-2.7-0.7v-5.6l1.8 0.3c4.3 0.8 8.2 2.9 11.3 6.1 1.4 1.4 2.7 3.1 3.7 4.8l0.9 1.8c1 2.4 1.7 5 1.8 7.7zm10.9 0h-5.5v-1.1c0-13.3-10.8-24.1-24.1-24.1h-0.9v-5.5h0.9c1 0 2 0 2.9 0.1 2.4 0.2 4.8 0.8 7.1 1.6 0.9 0.3 1.8 0.7 2.7 1.1 3 1.4 5.8 3.4 8.3 5.8 3 3 5.3 6.6 6.8 10.4 0.1 0.3 0.2 0.6 0.3 1 1 3 1.6 6.2 1.6 9.5-0.1 0.5-0.1 0.8-0.1 1.2z" fill="#22A1CE"/></svg>