<svg xmlns="http://www.w3.org/2000/svg" xmlns:xlink="http://www.w3.org/1999/xlink" id="icon_keys-Layer_1" xml:space="preserve" viewBox="0 0 72 72" version="1.1" y="0px" x="0px" enable-background="new 0 0 72 72" width="32" height="32"><path d="m36 0c-19.9 0-36 16.1-36 36s16.1 36 36 36 36-16.1 36-36-16.1-36-36-36zm8.6 13.6c4.9 0 8.9 4 8.9 8.9 0 4.8-3.8 8.7-8.6 8.9-0.5-0.7-0.6-1.5-0.4-2.3h0.1c3.6 0 6.5-2.9 6.5-6.5s-2.9-6.5-6.5-6.5c-2.4 0-4.6 1.3-5.7 3.3l-1.8-1.6c1.6-2.6 4.3-4.2 7.5-4.2zm-16.7 28.4c-0.1-0.1-0.3-0.1-0.4 0l-0.8 0.9c-0.1 0.1-0.1 0.3 0 0.4l1 0.9-1.7 1.9-1-0.9c-0.1-0.1-0.3-0.1-0.4 0l-0.8 0.8c-0.1 0.1-0.1 0.3 0 0.4l1 0.9-0.9 0.9-1-0.9c-0.1-0.1-0.3-0.1-0.4 0l-0.8 0.9c-0.1 0.1-0.1 0.3 0 0.4l1 0.9-0.9 0.9-4.8 0.1 0.1-3.2 12.1-13.1-0.4-0.4c-0.2-0.2-0.3-0.6-0.2-0.7l1.1-1.2-2-5.4c-0.3-0.6-0.1-1.3 0.4-1.7l6.6-5.7c0.6-0.5 1.5-0.5 2 0l3.2 2.9c-2.1 1-3.9 2.6-5.1 4.8-1.7 3-1.8 6.5-0.7 9.5 0.2 0.6 0.5 1.2 0.8 1.7l-0.4 0.5c-0.2 0.2-0.5 0.1-0.7-0.1l-0.4-0.4-4.4 4.8-1.1-0.8zm25.5-4.9c-2 3.6-5.9 5.4-9.7 5l-0.9 1.6c-0.1 0.2-0.4 0.2-0.7 0.1l-0.5-0.3-2.2 3.9-1.7 0.1-0.7 1.2 1 1.2-0.6 1-1.7 0.1-0.7 1.2 1 1.2-0.4 0.7-1.8 0.3 0.9 1.4-0.9 1.6-3.2 0.7-1.2-3.1 7.8-14.2-0.5-0.3c-0.3-0.1-0.4-0.4-0.3-0.6l0.9-1.6c-2.4-3-3-7.3-1-10.9 2.6-4.7 8.4-6.4 13.1-3.9-0.5 1.4-0.9 1.8-2.1 2.7-1.5-0.4-3.2 0.2-4 1.7-0.9 1.7-0.3 3.8 1.4 4.7s3.8 0.3 4.7-1.4c0-0.1 0.1-0.1 0.1-0.2 1.8-0.5 3.1-1.8 4-3.6 1.5 3.2 1.6 6.7-0.1 9.7z" fill="#22A1CE"/></svg>