<svg xmlns="http://www.w3.org/2000/svg" xmlns:xlink="http://www.w3.org/1999/xlink" id="icon_help-Layer_1" xml:space="preserve" viewBox="0 0 72 72" version="1.1" y="0px" x="0px" enable-background="new 0 0 72 72" width="32" height="32"><path d="m36 0c-19.9 0-36 16.1-36 36s16.1 36 36 36 36-16.1 36-36-16.1-36-36-36zm2.8 58.4c-0.9 0.8-2 1.2-3.2 1.2-1.3 0-2.4-0.4-3.3-1.2s-1.4-2-1.4-3.4c0-1.3 0.5-2.4 1.4-3.3s2-1.3 3.4-1.3c1.3 0 2.4 0.4 3.3 1.3s1.3 2 1.3 3.3c-0.1 1.5-0.6 2.6-1.5 3.4zm11.6-28.7c-0.7 1.3-1.6 2.5-2.5 3.4-1 1-2.7 2.6-5.3 4.9-0.7 0.6-1.3 1.2-1.7 1.7s-0.7 0.9-0.9 1.3-0.4 0.8-0.5 1.2-0.3 1.1-0.5 2.1c-0.4 2.2-1.6 3.2-3.7 3.2-1.1 0-2-0.4-2.7-1.1s-1.1-1.8-1.1-3.1c0-1.7 0.3-3.2 0.8-4.5s1.3-2.4 2.1-3.4c0.9-1 2.1-2.1 3.6-3.4 1.3-1.2 2.3-2 2.9-2.6s1.1-1.2 1.5-2c0.4-0.7 0.6-1.5 0.6-2.4 0-1.7-0.6-3.1-1.8-4.2s-2.8-1.7-4.8-1.7c-2.3 0-4 0.6-5 1.7-1.1 1.1-2 2.8-2.7 5.1s-2 3.5-4 3.5c-1.2 0-2.1-0.4-2.9-1.2s-1.2-1.7-1.2-2.7c0-2 0.6-4 1.9-6s3.1-3.7 5.5-5 5.3-2 8.5-2c3 0 5.7 0.6 8 1.7s4.1 2.6 5.3 4.5c1.3 1.9 1.9 4 1.9 6.2-0.3 1.9-0.6 3.5-1.3 4.8z" fill="#22A1CE"/></svg>