<svg xmlns="http://www.w3.org/2000/svg" xmlns:xlink="http://www.w3.org/1999/xlink" id="icon_twitter-Layer_1" xml:space="preserve" viewBox="0 0 72 72" version="1.1" y="0px" x="0px" enable-background="new 0 0 72 72" width="32" height="32"><path d="m36 0c-19.9 0-36 16.1-36 36s16.1 36 36 36 36-16.1 36-36-16.1-36-36-36zm17.8 28.3v1.1c0 2.9-0.5 5.8-1.6 8.7s-2.7 5.6-4.8 8-4.7 4.3-7.8 5.8-6.6 2.3-10.7 2.3c-2.5 0-4.8-0.3-7.1-1s-4.4-1.7-6.3-2.9c0.3 0.1 0.7 0.1 1 0.1h1.1c2 0 3.9-0.3 5.8-1s3.5-1.6 5-2.8c-1.9 0-3.7-0.6-5.1-1.7-1.5-1.1-2.5-2.6-3.1-4.3 0.3 0.1 0.6 0.1 0.8 0.1h0.8c0.4 0 0.8 0 1.2-0.1s0.8-0.1 1.2-0.3c-2-0.4-3.7-1.4-5-3s-2-3.5-2-5.6v-0.1c1.1 0.6 2.5 1 4 1.1-1.1-0.8-2.1-1.8-2.8-3.1s-1.1-2.7-1.1-4.2c0-1.6 0.4-3.1 1.2-4.4 2.2 2.7 4.8 4.8 7.9 6.4s6.4 2.5 10.1 2.7c-0.1-0.3-0.1-0.6-0.1-0.9s0-0.7 0-1c0-1.2 0.2-2.3 0.7-3.4s1.1-2 1.8-2.8c0.8-0.8 1.7-1.4 2.7-1.9 1.1-0.5 2.2-0.7 3.4-0.7 1.3 0 2.5 0.3 3.6 0.8s2 1.2 2.8 2c1-0.2 1.9-0.4 2.8-0.8s1.8-0.8 2.7-1.2c-0.3 1-0.8 1.9-1.5 2.7s-1.5 1.5-2.4 2.1c0.9-0.1 1.8-0.3 2.6-0.5s1.6-0.5 2.4-0.9c-1.1 1.9-2.5 3.4-4.2 4.7z" fill="#22A1CE"/></svg>