<svg xmlns="http://www.w3.org/2000/svg" xmlns:xlink="http://www.w3.org/1999/xlink" id="icon_website_link-Layer_1" xml:space="preserve" viewBox="0 0 72 72" version="1.1" y="0px" x="0px" enable-background="new 0 0 72 72" width="32" height="32"><path d="m36 0c-19.9 0-36 16.1-36 36s16.1 36 36 36c19.9 0 36-16.1 36-36s-16.1-36-36-36zm-2 53c-4.1 4.1-10.7 4.1-14.8 0s-4.1-10.7 0-14.8l7.4-7.4c4.1-4.1 10.7-4.1 14.8 0 0.6 0.6 1.1 1.4 1.6 2.1l-3.4 3.4c-0.2 0.2-0.4 0.3-0.6 0.4-0.2-0.8-0.7-1.6-1.3-2.2-2-2-5.4-2-7.4 0l-7.4 7.4c-2 2-2 5.4 0 7.4s5.4 2 7.4 0l2.6-2.6c2.1 0.8 4.4 1.1 6.7 0.7l-5.6 5.6zm18.5-18.5l-7.4 7.4c-4.1 4.1-10.7 4.1-14.8 0-0.6-0.6-1.1-1.4-1.6-2.1l3.4-3.4c0.2-0.2 0.4-0.3 0.6-0.4 0.2 0.8 0.7 1.6 1.3 2.2 2 2 5.4 2 7.4 0l7.4-7.4c2-2 2-5.4 0-7.4s-5.4-2-7.4 0l-2.6 2.6c-2.1-0.8-4.4-1.1-6.7-0.7l5.6-5.6c4.1-4.1 10.7-4.1 14.8 0 4 4.1 4 10.8 0 14.8z" fill="#22A1CE"/></svg>