<svg xmlns="http://www.w3.org/2000/svg" xmlns:xlink="http://www.w3.org/1999/xlink" id="icon_home-Layer_1" xml:space="preserve" viewBox="0 0 72 72" version="1.1" y="0px" x="0px" enable-background="new 0 0 72 72" width="32" height="32"><path d="m36 0c-19.9 0-36 16.1-36 36s16.1 36 36 36 36-16.1 36-36-16.1-36-36-36zm16.6 52.6c0 2.6-2.1 4.7-4.7 4.7h-7.6v-11.6h-8.6v11.7h-7.6c-2.6 0-4.7-2.1-4.7-4.7v-11.2c0-0.3 0.1-0.7 0.4-0.9l15.2-15.3c0.5-0.5 1.3-0.5 1.8 0l15.3 15.3c0.2 0.2 0.4 0.6 0.4 0.9v11.1zm5.6-14.9c-0.5 0.5-1.2 0.8-1.9 0.8s-1.3-0.3-1.9-0.8l-17.4-17.4c-0.6-0.6-1.6-0.6-2.1 0l-17.4 17.4c-1 1-2.7 1-3.7 0s-1-2.7 0-3.7l17.4-17.4c2.6-2.6 7-2.6 9.6 0l5.2 5.2v-2.8c0-1.5 1.2-2.6 2.6-2.6 1.5 0 2.6 1.2 2.6 2.6v8l7 7c1 1 1 2.6 0 3.7z" fill="#22A1CE"/></svg>