<svg xmlns="http://www.w3.org/2000/svg" xmlns:xlink="http://www.w3.org/1999/xlink" id="icon_facebook-Layer_1" xml:space="preserve" viewBox="0 0 72 72" version="1.1" y="0px" x="0px" enable-background="new 0 0 72 72" width="32" height="32"><path d="m36 0c-19.9 0-36 16.1-36 36s16.1 36 36 36 36-16.1 36-36-16.1-36-36-36zm13.6 24.8h-6.8c-0.4 0-0.9 0.2-1.4 0.6s-0.8 0.9-0.8 1.6v2.3h6.7v8.9h-6.7v18h-9v-18h-6.8v-8.9h6.8v-4.6c0-1.1 0.3-2.2 0.8-3.3s1.2-2.1 2.2-2.9 2-1.5 3.3-2.1c1.3-0.5 2.6-0.8 4.1-0.8h7.6v9.2z" fill="#22A1CE"/></svg>