<svg xmlns="http://www.w3.org/2000/svg" xmlns:xlink="http://www.w3.org/1999/xlink" id="icon_delete-Layer_1" xml:space="preserve" viewBox="0 0 72 72" version="1.1" y="0px" x="0px" enable-background="new 0 0 72 72" width="32" height="32"><path d="m36 0c-19.9 0-36 16.1-36 36s16.1 36 36 36 36-16.1 36-36-16.1-36-36-36zm14.6 45.8c1.4 1.4 1.4 3.6 0 4.9-0.7 0.7-1.6 1-2.4 1-0.9 0-1.8-0.3-2.4-1l-9.8-9.8-9.7 9.8c-0.7 0.7-1.6 1-2.4 1-0.9 0-1.8-0.3-2.4-1-1.4-1.4-1.4-3.6 0-4.9l9.7-9.8-9.7-9.8c-1.4-1.4-1.4-3.6 0-4.9 1.4-1.4 3.5-1.4 4.9 0l9.7 9.8 9.7-9.8c1.4-1.4 3.5-1.4 4.9 0s1.4 3.6 0 4.9l-9.8 9.8 9.7 9.8z" fill="#22A1CE"/></svg>