<svg xmlns="http://www.w3.org/2000/svg" xmlns:xlink="http://www.w3.org/1999/xlink" id="icon_podcast-Layer_1" xml:space="preserve" viewBox="0 0 72 72" version="1.1" y="0px" x="0px" enable-background="new 0 0 72 72" width="32" height="32"><path d="m36 0c-19.9 0-36 16.1-36 36s16.1 36 36 36c19.9 0 36-16.1 36-36s-16.1-36-36-36zm-7.6 18.7c0-2.3 1.5-4.5 3.7-5.3 0.5-0.2 0.9-0.3 1.4-0.3h4.7c0.6 0.1 1.2 0.2 1.7 0.5 1.3 0.6 2.3 1.6 2.9 2.9 0.2 0.3 0.3 0.7 0.3 1 0 0.2 0 0.2-0.2 0.2h-5-0.1c-0.2 0-0.2 0.1-0.2 0.2v1.4c0 0.2 0 0.2 0.2 0.2h5.1c0.3 0 0.3 0 0.3 0.3v1.3c0 0.2-0.1 0.2-0.2 0.2h-5.1c-0.3 0-0.3 0-0.3 0.3v1.3c0 0.2 0.1 0.2 0.2 0.2h5.1c0.3 0 0.3 0 0.3 0.3v1.3c0 0.3 0 0.3-0.3 0.3h-5.1c-0.3 0-0.3 0-0.3 0.3v1.3c0 0.3 0 0.3 0.3 0.3h5.1c0.3 0 0.3 0 0.3 0.3v1.4c0 0.2-0.1 0.2-0.2 0.2h-5.1c-0.3 0-0.3 0-0.3 0.2v1.4c0 0.2 0.1 0.2 0.2 0.2h5.1c0.3 0 0.3 0 0.3 0.3v1.4c0 0.2-0.1 0.2-0.2 0.2h-5.1c-0.3 0-0.3 0-0.3 0.2v1.4c0 0.2 0.1 0.2 0.2 0.2h5.1c0.3 0 0.3 0 0.3 0.3v1.4c0 0.2-0.1 0.2-0.2 0.2h-5.1c-0.3 0-0.3 0-0.3 0.3v1.3c0 0.2 0 0.2 0.2 0.2h5.1c0.3 0 0.3 0 0.2 0.2-0.6 2.3-2.1 3.8-4.5 4.3-0.3 0.1-0.5 0.1-0.8 0.1h-4c-1.2 0-2.3-0.4-3.2-1.2-1.2-1-2-2.2-2.2-3.7v-0.8-18.2zm21.4 19.3v0.1c-0.1 1.2-0.3 2.3-0.8 3.4-0.7 1.7-1.7 3.3-3.1 4.5-1.5 1.4-3.3 2.4-5.3 2.9-0.9 0.2-1.8 0.3-2.7 0.4-0.2 0-0.2 0.1-0.2 0.3v5.9c0 0.3 0 0.3 0.3 0.3h7.4c0.3 0 0.3 0 0.3 0.3v2.2 1.3h-19.6v-0.2-3.2c0-0.4-0.1-0.3 0.4-0.3h7.3c0.2 0 0.2 0 0.2-0.2v-6c0-0.2 0-0.2-0.2-0.2-0.5 0-1-0.1-1.4-0.1-1.3-0.2-2.5-0.6-3.6-1.1-1.9-0.9-3.4-2.3-4.6-4-1-1.4-1.7-3-2-4.7-0.1-0.5-0.1-1-0.2-1.5v-7.3h2 1.5c0.3 0 0.3 0 0.3 0.3v6.1c0 0.7 0.1 1.4 0.3 2.1 0.4 1.6 1.3 3 2.6 4.2 1.1 1 2.4 1.7 3.9 2 0.5 0.1 1.1 0.2 1.6 0.2h3.6c2.5 0 4.6-1 6.3-2.9 1.1-1.2 1.8-2.6 2-4.2 0.1-0.5 0.1-0.9 0.1-1.4v-6.1c0-0.3 0-0.3 0.3-0.3h3.3 0.2c-0.2 2.4-0.2 4.8-0.2 7.2z" fill="#22A1CE"/></svg>