<?xml version="1.0"?>
<!--Icons from directory ""-->
<svg xmlns="http://www.w3.org/2000/svg" width="32" height="544" viewBox="0 0 32 544"><svg xmlns:xlink="http://www.w3.org/1999/xlink" id="icon_blog" xml:space="preserve" viewBox="0 0 72 72" version="1.1" y="0" x="0px" enable-background="new 0 0 72 72" width="32" height="32"><path d="m36 0c-19.9 0-36 16.1-36 36s16.1 36 36 36 36-16.1 36-36-16.1-36-36-36zm-2.4 46.5c0 4.5-3.6 8.1-8.1 8.1s-8.1-3.6-8.1-8.1v-13.6h5.9v13.6c0 1.2 1 2.1 2.1 2.1 1.2 0 2.1-1 2.1-2.1s-1-2.1-2.1-2.1c-0.5 0-1 0.2-1.3 0.5v-6.3c0.4-0.1 0.9-0.1 1.3-0.1h0.8c4.2 0.4 7.4 3.8 7.4 8zm10.5 0.7h-5.5c-0.4-5.3-3.4-9.9-7.6-12.6-0.4-0.2-0.8-0.5-1.2-0.7-0.8-0.4-1.7-0.8-2.5-1.1-0.9-0.3-1.8-0.5-2.7-0.7v-5.6l1.8 0.3c4.3 0.8 8.2 2.9 11.3 6.1 1.4 1.4 2.7 3.1 3.7 4.8l0.9 1.8c1 2.4 1.7 5 1.8 7.7zm10.9 0h-5.5v-1.1c0-13.3-10.8-24.1-24.1-24.1h-0.9v-5.5h0.9c1 0 2 0 2.9 0.1 2.4 0.2 4.8 0.8 7.1 1.6 0.9 0.3 1.8 0.7 2.7 1.1 3 1.4 5.8 3.4 8.3 5.8 3 3 5.3 6.6 6.8 10.4 0.1 0.3 0.2 0.6 0.3 1 1 3 1.6 6.2 1.6 9.5-0.1 0.5-0.1 0.8-0.1 1.2z" fill="#22A1CE"/></svg><svg xmlns:xlink="http://www.w3.org/1999/xlink" id="icon_calendar" xml:space="preserve" viewBox="0 0 72 72" version="1.1" y="32" x="0px" enable-background="new 0 0 72 72" width="32" height="32"><g fill="#22A1CE">	<path d="m52.5 32.6c0-1.5-0.9-2.1-2.1-2.1h-14.4-14.6c-0.2 0-0.5 0-0.7 0.1-0.9 0.2-1.3 0.9-1.3 2v17.1c0 0.9 0.2 1.7 0.9 2.4s1.7 0.9 2.6 0.9h25.7c0.4 0 0.9 0 1.3-0.1 1.2-0.1 2.4-1.3 2.5-2.5 0-0.5 0.1-0.9 0.1-1.4v-13.8-2.6zm-20 2.6c0-0.9 0.8-1.7 1.7-1.7h1.7 1.7c0.9 0 1.7 0.8 1.8 1.7v3.3c0 0.9-0.8 1.7-1.7 1.7h-3.3c-0.9 0-1.7-0.8-1.7-1.7-0.2-1.1-0.2-2.2-0.2-3.3zm-3.4 13.5c0 0.9-0.8 1.7-1.8 1.7h-1.7-1.6c-1 0-1.8-0.8-1.8-1.8v-3.3c0-1 0.8-1.8 1.8-1.8h3.3c1 0 1.8 0.8 1.8 1.8v3.4zm0-10.2c0 1-0.8 1.8-1.8 1.8h-3.3c-1 0-1.8-0.8-1.8-1.8v-3.3c0-1 0.8-1.8 1.8-1.8h3.3c0.9 0 1.7 0.8 1.7 1.8v1.7c0.1 0.5 0.1 1 0.1 1.6zm10.2 10.2c0 1-0.8 1.8-1.8 1.8h-3.3c-0.9 0-1.7-0.8-1.7-1.8v-3.3c0-0.9 0.8-1.7 1.7-1.8h1.7 1.6c1 0 1.8 0.8 1.8 1.8v3.3zm10.2 0c0 1-0.8 1.8-1.8 1.8h-3.3c-0.9 0-1.7-0.8-1.7-1.8v-1.7-1.6c0-1 0.8-1.8 1.8-1.8h3.3c1 0 1.8 0.8 1.8 1.8-0.1 1.1-0.1 2.2-0.1 3.3zm0-10.2c0 1-0.8 1.8-1.8 1.8h-3.3c-1 0-1.8-0.8-1.8-1.8v-3.3c0-0.9 0.8-1.7 1.8-1.7h1.7 1.6c1 0 1.8 0.8 1.8 1.8v3.2z"/>	<path d="m36 0c-19.9 0-36 16.1-36 36s16.1 36 36 36c19.9 0 36-16.1 36-36s-16.1-36-36-36zm4.9 18.6c0-1 0.8-1.8 1.8-1.8h2c1 0 1.8 0.8 1.8 1.8v5.2c0 1.1-0.8 1.9-1.9 2h-1.8c-1.1 0-1.9-0.8-1.9-1.9v-2.6c0-1-0.1-1.8 0-2.7zm-14.6 0c0-1 0.8-1.8 1.8-1.8h2c1 0 1.8 0.8 1.8 1.8v5.2c0 1-0.6 1.8-1.6 1.9-0.8 0.1-1.6 0.1-2.4 0-0.9-0.2-1.5-0.9-1.5-1.8v-2.6c-0.2-1-0.2-1.8-0.1-2.7zm29.4 31.5c0 3.3-2.7 6.1-6.1 6.1h-13.6s-9.1 0-13.6 0c-3.3 0-6.1-2.8-6.1-6v-24.1c0-3.3 2.8-6.1 6-6.1h1.7c0.3 0 0.4 0.1 0.4 0.4v3.2c0 1.1 0.3 2 1 2.8 0.6 0.7 1.4 1.1 2.3 1.1s1.9 0.1 2.8-0.1c1.6-0.3 2.8-1.7 2.9-3.2 0.1-1.3 0-2.5 0-3.8 0-0.3 0.1-0.5 0.5-0.5h4.5c0.4 0 0.5 0.1 0.5 0.5v3.1c0 1.3 0.4 2.4 1.5 3.2 0.5 0.4 1.1 0.7 1.8 0.7 0.9 0 1.9 0.1 2.8 0 1.6-0.3 2.9-1.6 3-3.3 0.1-1.2 0-2.5 0-3.7 0-0.4 0.1-0.4 0.5-0.5 1.5-0.1 3 0.2 4.2 1.1 1.8 1.2 2.7 2.9 2.7 5.1 0.3 8 0.3 16 0.3 24z"/></g></svg><svg xmlns:xlink="http://www.w3.org/1999/xlink" id="icon_chat_forum" xml:space="preserve" viewBox="0 0 72 72" version="1.1" y="64" x="0px" enable-background="new 0 0 72 72" width="32" height="32"><path d="m36 0c-19.9 0-36 16.1-36 36s16.1 36 36 36c19.9 0 36-16.1 36-36s-16.1-36-36-36zm-13.4 34.2v7.2l-4.2 4.6v-6.4c-2.1-0.9-3.6-3-3.6-5.4v-5.9c0-3.3 2.7-5.9 5.9-5.9h14.1c1.4 0 2.7 0.5 3.7 1.3h-5.4c-5.8-0.1-10.5 4.6-10.5 10.5zm34.3 8.2c0 2.9-1.8 5.4-4.3 6.5v7.6l-6.2-7.1h-13.3c-3.9 0-7.1-3.2-7.1-7.1v-8.3c0-3.9 3.2-7.1 7.1-7.1h16.6c3.9 0 7.1 3.2 7.1 7.1v8.4z" fill="#22A1CE"/></svg><svg xmlns:xlink="http://www.w3.org/1999/xlink" id="icon_delete" xml:space="preserve" viewBox="0 0 72 72" version="1.1" y="96" x="0px" enable-background="new 0 0 72 72" width="32" height="32"><path d="m36 0c-19.9 0-36 16.1-36 36s16.1 36 36 36 36-16.1 36-36-16.1-36-36-36zm14.6 45.8c1.4 1.4 1.4 3.6 0 4.9-0.7 0.7-1.6 1-2.4 1-0.9 0-1.8-0.3-2.4-1l-9.8-9.8-9.7 9.8c-0.7 0.7-1.6 1-2.4 1-0.9 0-1.8-0.3-2.4-1-1.4-1.4-1.4-3.6 0-4.9l9.7-9.8-9.7-9.8c-1.4-1.4-1.4-3.6 0-4.9 1.4-1.4 3.5-1.4 4.9 0l9.7 9.8 9.7-9.8c1.4-1.4 3.5-1.4 4.9 0s1.4 3.6 0 4.9l-9.8 9.8 9.7 9.8z" fill="#22A1CE"/></svg><svg xmlns:xlink="http://www.w3.org/1999/xlink" id="icon_edit" xml:space="preserve" viewBox="0 0 72 72" version="1.1" y="128" x="0px" enable-background="new 0 0 72 72" width="32" height="32"><path d="m36 0c-19.9 0-36 16.1-36 36s16.1 36 36 36 36-16.1 36-36-16.1-36-36-36zm-18.6 54.7l1.9-11.1 9.1 9.1-11 2zm12.3-3.2l-9.1-9.1 20.9-20.9 9.1 9.1-20.9 20.9zm26.1-26.1l-3.9 3.9-9.1-9.1 3.9-3.9c1.3-1.3 2.6 0 2.6 0l6.5 6.5s1.3 1.3 0 2.6z" fill="#22A1CE"/></svg><svg xmlns:xlink="http://www.w3.org/1999/xlink" id="icon_email" xml:space="preserve" viewBox="0 0 72 72" version="1.1" y="160" x="0px" enable-background="new 0 0 72 72" width="32" height="32"><path d="m36 0c-19.9 0-36 16.1-36 36s16.1 36 36 36 36-16.1 36-36-16.1-36-36-36zm-19.5 21.2h38.9c0.3 0 0.5 0 0.8 0.1l-14.5 12.4-1.9 1.5-3.8 3.2-3.8-3.1-1.9-1.5-14.5-12.5c0.2 0 0.4-0.1 0.7-0.1zm-2.6 27.2v-24.5s0-0.3 0.1-0.8l14.4 12.4-14.4 13.8c-0.1-0.4-0.1-0.7-0.1-0.9zm41.5 2.6h-38.9c-0.2 0-0.5 0-0.7-0.1l14.6-13.9 5.6 4.6 5.6-4.6 14.5 13.9c-0.2 0.1-0.4 0.1-0.7 0.1zm2.6-2.6c0 0.3 0 0.5-0.1 0.9l-14.4-13.9 14.4-12.4c0.1 0.3 0.1 0.5 0.1 0.8v24.6z" fill="#22A1CE"/></svg><svg xmlns:xlink="http://www.w3.org/1999/xlink" id="icon_facebook" xml:space="preserve" viewBox="0 0 72 72" version="1.1" y="192" x="0px" enable-background="new 0 0 72 72" width="32" height="32"><path d="m36 0c-19.9 0-36 16.1-36 36s16.1 36 36 36 36-16.1 36-36-16.1-36-36-36zm13.6 24.8h-6.8c-0.4 0-0.9 0.2-1.4 0.6s-0.8 0.9-0.8 1.6v2.3h6.7v8.9h-6.7v18h-9v-18h-6.8v-8.9h6.8v-4.6c0-1.1 0.3-2.2 0.8-3.3s1.2-2.1 2.2-2.9 2-1.5 3.3-2.1c1.3-0.5 2.6-0.8 4.1-0.8h7.6v9.2z" fill="#22A1CE"/></svg><svg xmlns:xlink="http://www.w3.org/1999/xlink" id="icon_google_plus" xml:space="preserve" viewBox="0 0 72 72" version="1.1" y="224" x="0px" enable-background="new 0 0 72 72" width="32" height="32"><g fill="#22A1CE">	<path d="m37.4 47.1l-0.6-0.9c-0.2-0.2-0.4-0.5-0.7-0.8-0.4-0.4-0.7-0.6-0.8-0.7l-0.3-0.3c-0.1-0.1-0.3-0.3-0.5-0.4l-0.9-0.6c-0.1-0.1-0.2-0.1-0.3-0.3-0.1-0.1-0.3-0.2-0.6-0.3l-0.8-0.6h-0.6-0.8c-1 0-1.9 0.1-2.9 0.2-0.9 0.1-1.9 0.4-3 0.7-1.5 0.5-2.7 1.2-3.7 2.1-1 1-1.5 2.3-1.5 4 0 1.3 0.3 2.4 0.9 3.3s1.5 1.7 2.5 2.3c2.1 1.1 4.4 1.6 6.8 1.6 1 0 2-0.1 3.1-0.3 1-0.2 1.9-0.6 2.7-1.1s1.5-1.1 2-1.9 0.8-1.8 0.8-3c0-0.8-0.1-1.5-0.4-2.1-0.1-0.4-0.3-0.7-0.4-0.9z"/>	<path d="m33.8 30.9c0.8-1.1 1.2-2.5 1.2-4.4 0-1.1-0.2-2.2-0.5-3.5-0.3-1.2-0.8-2.4-1.3-3.6-0.5-1.1-1.3-2.1-2.2-2.8-1-0.7-2.1-1.1-3.3-1.1-1.7 0-3 0.6-4 1.9-0.9 1.4-1.4 2.9-1.4 4.6 0 1 0.2 2.2 0.5 3.4s0.8 2.4 1.5 3.4c0.6 1.1 1.4 1.9 2.4 2.7s2 1.1 3.2 1.1c1.8 0 3.1-0.6 3.9-1.7z"/>	<path d="m36 0c-19.9 0-36 16.1-36 36s16.1 36 36 36 36-16.1 36-36-16.1-36-36-36zm2.2 55.4c-2.7 2.4-6.6 3.6-11.4 3.6-1.3 0-2.7-0.1-4.1-0.4s-2.8-0.8-4-1.5c-1.3-0.7-2.3-1.6-3.1-2.7s-1.2-2.4-1.2-4c0-1.1 0.3-2.4 1-3.7 0.6-1.1 1.4-2.1 2.6-3 1.1-0.9 2.5-1.5 4-2 2.8-0.9 5.6-1.3 8.3-1.4-1.1-1.4-1.7-2.7-1.7-4 0-0.6 0.1-0.9 0.2-1.1s0.1-0.4 0.2-0.6c0.1-0.3 0.2-0.4 0.2-0.6-0.4 0.1-0.8 0.1-1.1 0.1h-0.9c-2.7 0-5-0.9-7-2.7-1.9-1.7-2.8-4-2.8-6.7 0-2.5 0.9-4.8 2.6-6.8s3.8-3.3 6.4-3.9c1.7-0.3 3.4-0.5 5.1-0.5h11.9l-3.7 2.1h-3.7c1.3 0.8 2.3 1.9 3 3.4 0.7 1.6 1.1 3.1 1.1 4.6 0 1.4-0.2 2.6-0.6 3.6s-1 1.9-1.6 2.5c-0.9 1-1.7 1.8-2.6 2.6s-1.3 1.7-1.3 2.7c0 0.9 0.4 1.6 1.3 2.3s1.8 1.5 2.8 2.4 2 1.9 2.8 3.2c0.9 1.2 1.3 2.8 1.3 4.7-0.1 3-1.4 5.6-4 7.8zm21.5-31.3h-7v7h-3.5v-7h-7v-3.4h7v-7h3.5v7h7v3.4z"/></g></svg><svg xmlns:xlink="http://www.w3.org/1999/xlink" id="icon_help" xml:space="preserve" viewBox="0 0 72 72" version="1.1" y="256" x="0px" enable-background="new 0 0 72 72" width="32" height="32"><path d="m36 0c-19.9 0-36 16.1-36 36s16.1 36 36 36 36-16.1 36-36-16.1-36-36-36zm2.8 58.4c-0.9 0.8-2 1.2-3.2 1.2-1.3 0-2.4-0.4-3.3-1.2s-1.4-2-1.4-3.4c0-1.3 0.5-2.4 1.4-3.3s2-1.3 3.4-1.3c1.3 0 2.4 0.4 3.3 1.3s1.3 2 1.3 3.3c-0.1 1.5-0.6 2.6-1.5 3.4zm11.6-28.7c-0.7 1.3-1.6 2.5-2.5 3.4-1 1-2.7 2.6-5.3 4.9-0.7 0.6-1.3 1.2-1.7 1.7s-0.7 0.9-0.9 1.3-0.4 0.8-0.5 1.2-0.3 1.1-0.5 2.1c-0.4 2.2-1.6 3.2-3.7 3.2-1.1 0-2-0.4-2.7-1.1s-1.1-1.8-1.1-3.1c0-1.7 0.3-3.2 0.8-4.5s1.3-2.4 2.1-3.4c0.9-1 2.1-2.1 3.6-3.4 1.3-1.2 2.3-2 2.9-2.6s1.1-1.2 1.5-2c0.4-0.7 0.6-1.5 0.6-2.4 0-1.7-0.6-3.1-1.8-4.2s-2.8-1.7-4.8-1.7c-2.3 0-4 0.6-5 1.7-1.1 1.1-2 2.8-2.7 5.1s-2 3.5-4 3.5c-1.2 0-2.1-0.4-2.9-1.2s-1.2-1.7-1.2-2.7c0-2 0.6-4 1.9-6s3.1-3.7 5.5-5 5.3-2 8.5-2c3 0 5.7 0.6 8 1.7s4.1 2.6 5.3 4.5c1.3 1.9 1.9 4 1.9 6.2-0.3 1.9-0.6 3.5-1.3 4.8z" fill="#22A1CE"/></svg><svg xmlns:xlink="http://www.w3.org/1999/xlink" id="icon_home" xml:space="preserve" viewBox="0 0 72 72" version="1.1" y="288" x="0px" enable-background="new 0 0 72 72" width="32" height="32"><path d="m36 0c-19.9 0-36 16.1-36 36s16.1 36 36 36 36-16.1 36-36-16.1-36-36-36zm16.6 52.6c0 2.6-2.1 4.7-4.7 4.7h-7.6v-11.6h-8.6v11.7h-7.6c-2.6 0-4.7-2.1-4.7-4.7v-11.2c0-0.3 0.1-0.7 0.4-0.9l15.2-15.3c0.5-0.5 1.3-0.5 1.8 0l15.3 15.3c0.2 0.2 0.4 0.6 0.4 0.9v11.1zm5.6-14.9c-0.5 0.5-1.2 0.8-1.9 0.8s-1.3-0.3-1.9-0.8l-17.4-17.4c-0.6-0.6-1.6-0.6-2.1 0l-17.4 17.4c-1 1-2.7 1-3.7 0s-1-2.7 0-3.7l17.4-17.4c2.6-2.6 7-2.6 9.6 0l5.2 5.2v-2.8c0-1.5 1.2-2.6 2.6-2.6 1.5 0 2.6 1.2 2.6 2.6v8l7 7c1 1 1 2.6 0 3.7z" fill="#22A1CE"/></svg><svg xmlns:xlink="http://www.w3.org/1999/xlink" id="icon_keys" xml:space="preserve" viewBox="0 0 72 72" version="1.1" y="320" x="0px" enable-background="new 0 0 72 72" width="32" height="32"><path d="m36 0c-19.9 0-36 16.1-36 36s16.1 36 36 36 36-16.1 36-36-16.1-36-36-36zm8.6 13.6c4.9 0 8.9 4 8.9 8.9 0 4.8-3.8 8.7-8.6 8.9-0.5-0.7-0.6-1.5-0.4-2.3h0.1c3.6 0 6.5-2.9 6.5-6.5s-2.9-6.5-6.5-6.5c-2.4 0-4.6 1.3-5.7 3.3l-1.8-1.6c1.6-2.6 4.3-4.2 7.5-4.2zm-16.7 28.4c-0.1-0.1-0.3-0.1-0.4 0l-0.8 0.9c-0.1 0.1-0.1 0.3 0 0.4l1 0.9-1.7 1.9-1-0.9c-0.1-0.1-0.3-0.1-0.4 0l-0.8 0.8c-0.1 0.1-0.1 0.3 0 0.4l1 0.9-0.9 0.9-1-0.9c-0.1-0.1-0.3-0.1-0.4 0l-0.8 0.9c-0.1 0.1-0.1 0.3 0 0.4l1 0.9-0.9 0.9-4.8 0.1 0.1-3.2 12.1-13.1-0.4-0.4c-0.2-0.2-0.3-0.6-0.2-0.7l1.1-1.2-2-5.4c-0.3-0.6-0.1-1.3 0.4-1.7l6.6-5.7c0.6-0.5 1.5-0.5 2 0l3.2 2.9c-2.1 1-3.9 2.6-5.1 4.8-1.7 3-1.8 6.5-0.7 9.5 0.2 0.6 0.5 1.2 0.8 1.7l-0.4 0.5c-0.2 0.2-0.5 0.1-0.7-0.1l-0.4-0.4-4.4 4.8-1.1-0.8zm25.5-4.9c-2 3.6-5.9 5.4-9.7 5l-0.9 1.6c-0.1 0.2-0.4 0.2-0.7 0.1l-0.5-0.3-2.2 3.9-1.7 0.1-0.7 1.2 1 1.2-0.6 1-1.7 0.1-0.7 1.2 1 1.2-0.4 0.7-1.8 0.3 0.9 1.4-0.9 1.6-3.2 0.7-1.2-3.1 7.8-14.2-0.5-0.3c-0.3-0.1-0.4-0.4-0.3-0.6l0.9-1.6c-2.4-3-3-7.3-1-10.9 2.6-4.7 8.4-6.4 13.1-3.9-0.5 1.4-0.9 1.8-2.1 2.7-1.5-0.4-3.2 0.2-4 1.7-0.9 1.7-0.3 3.8 1.4 4.7s3.8 0.3 4.7-1.4c0-0.1 0.1-0.1 0.1-0.2 1.8-0.5 3.1-1.8 4-3.6 1.5 3.2 1.6 6.7-0.1 9.7z" fill="#22A1CE"/></svg><svg xmlns:xlink="http://www.w3.org/1999/xlink" id="icon_magnifying_glass" xml:space="preserve" viewBox="0 0 72 72" version="1.1" y="352" x="0px" enable-background="new 0 0 72 72" width="32" height="32"><g fill="#22A1CE">	<circle cy="32.6" cx="32.5" r="10.3"/>	<path d="m36 0c-19.9 0-36 16.1-36 36s16.1 36 36 36 36-16.1 36-36-16.1-36-36-36zm18.2 54.3c-1.3 1.3-3.3 1.3-4.5 0l-8.4-8.4-0.1-0.1c-2.5 1.6-5.5 2.6-8.7 2.6-8.7 0-15.8-7.1-15.8-15.8s7.1-15.8 15.8-15.8 15.8 7.1 15.8 15.8c0 3.2-1 6.2-2.6 8.7l0.1 0.1 8.4 8.4c1.3 1.2 1.3 3.2 0 4.5z"/></g></svg><svg xmlns:xlink="http://www.w3.org/1999/xlink" id="icon_podcast" xml:space="preserve" viewBox="0 0 72 72" version="1.1" y="384" x="0px" enable-background="new 0 0 72 72" width="32" height="32"><path d="m36 0c-19.9 0-36 16.1-36 36s16.1 36 36 36c19.9 0 36-16.1 36-36s-16.1-36-36-36zm-7.6 18.7c0-2.3 1.5-4.5 3.7-5.3 0.5-0.2 0.9-0.3 1.4-0.3h4.7c0.6 0.1 1.2 0.2 1.7 0.5 1.3 0.6 2.3 1.6 2.9 2.9 0.2 0.3 0.3 0.7 0.3 1 0 0.2 0 0.2-0.2 0.2h-5-0.1c-0.2 0-0.2 0.1-0.2 0.2v1.4c0 0.2 0 0.2 0.2 0.2h5.1c0.3 0 0.3 0 0.3 0.3v1.3c0 0.2-0.1 0.2-0.2 0.2h-5.1c-0.3 0-0.3 0-0.3 0.3v1.3c0 0.2 0.1 0.2 0.2 0.2h5.1c0.3 0 0.3 0 0.3 0.3v1.3c0 0.3 0 0.3-0.3 0.3h-5.1c-0.3 0-0.3 0-0.3 0.3v1.3c0 0.3 0 0.3 0.3 0.3h5.1c0.3 0 0.3 0 0.3 0.3v1.4c0 0.2-0.1 0.2-0.2 0.2h-5.1c-0.3 0-0.3 0-0.3 0.2v1.4c0 0.2 0.1 0.2 0.2 0.2h5.1c0.3 0 0.3 0 0.3 0.3v1.4c0 0.2-0.1 0.2-0.2 0.2h-5.1c-0.3 0-0.3 0-0.3 0.2v1.4c0 0.2 0.1 0.2 0.2 0.2h5.1c0.3 0 0.3 0 0.3 0.3v1.4c0 0.2-0.1 0.2-0.2 0.2h-5.1c-0.3 0-0.3 0-0.3 0.3v1.3c0 0.2 0 0.2 0.2 0.2h5.1c0.3 0 0.3 0 0.2 0.2-0.6 2.3-2.1 3.8-4.5 4.3-0.3 0.1-0.5 0.1-0.8 0.1h-4c-1.2 0-2.3-0.4-3.2-1.2-1.2-1-2-2.2-2.2-3.7v-0.8-18.2zm21.4 19.3v0.1c-0.1 1.2-0.3 2.3-0.8 3.4-0.7 1.7-1.7 3.3-3.1 4.5-1.5 1.4-3.3 2.4-5.3 2.9-0.9 0.2-1.8 0.3-2.7 0.4-0.2 0-0.2 0.1-0.2 0.3v5.9c0 0.3 0 0.3 0.3 0.3h7.4c0.3 0 0.3 0 0.3 0.3v2.2 1.3h-19.6v-0.2-3.2c0-0.4-0.1-0.3 0.4-0.3h7.3c0.2 0 0.2 0 0.2-0.2v-6c0-0.2 0-0.2-0.2-0.2-0.5 0-1-0.1-1.4-0.1-1.3-0.2-2.5-0.6-3.6-1.1-1.9-0.9-3.4-2.3-4.6-4-1-1.4-1.7-3-2-4.7-0.1-0.5-0.1-1-0.2-1.5v-7.3h2 1.5c0.3 0 0.3 0 0.3 0.3v6.1c0 0.7 0.1 1.4 0.3 2.1 0.4 1.6 1.3 3 2.6 4.2 1.1 1 2.4 1.7 3.9 2 0.5 0.1 1.1 0.2 1.6 0.2h3.6c2.5 0 4.6-1 6.3-2.9 1.1-1.2 1.8-2.6 2-4.2 0.1-0.5 0.1-0.9 0.1-1.4v-6.1c0-0.3 0-0.3 0.3-0.3h3.3 0.2c-0.2 2.4-0.2 4.8-0.2 7.2z" fill="#22A1CE"/></svg><svg xmlns:xlink="http://www.w3.org/1999/xlink" id="icon_share" xml:space="preserve" viewBox="0 0 72 72" version="1.1" y="416" x="0px" enable-background="new 0 0 72 72" width="32" height="32"><path d="m36 0c-19.9 0-36 16.1-36 36s16.1 36 36 36 36-16.1 36-36-16.1-36-36-36zm-8.8 35.8v0.3l14.2 7.4c1.3-1.5 3.2-2.4 5.3-2.4 4.1 0 7.4 3.5 7.4 7.8s-3.3 7.8-7.4 7.8c-4 0-7.3-3.4-7.4-7.6l-14.5-7.6c-1.3 1.3-3.1 2-5 2-4.1 0-7.4-3.5-7.4-7.8s3.3-7.8 7.4-7.8c2 0 3.9 0.9 5.2 2.2l14.3-7.1c0.2-4.1 3.4-7.4 7.4-7.4 4.1 0 7.4 3.5 7.4 7.8s-3.3 7.8-7.4 7.8c-2.1 0-4.1-1-5.4-2.5l-14.1 7.1z" fill="#22A1CE"/></svg><svg xmlns:xlink="http://www.w3.org/1999/xlink" id="icon_share_inverse" xml:space="preserve" viewBox="0 0 72 72" version="1.1" y="448" x="0px" enable-background="new 0 0 72 72" width="32" height="32"><path d="m30.1 35.7v0.3l13.8 7.2c1.3-1.4 3.1-2.3 5.2-2.3 4 0 7.2 3.4 7.2 7.5 0 4.2-3.2 7.5-7.2 7.5-3.9 0-7.1-3.3-7.2-7.3l-14.1-7.4c-1.3 1.2-3 2-4.8 2-4 0-7.2-3.4-7.2-7.5s3.2-7.5 7.2-7.5c2 0 3.7 0.8 5 2.2l13.9-7.1c0.2-4 3.3-7.2 7.2-7.2 4 0 7.2 3.4 7.2 7.5 0 4.2-3.2 7.5-7.2 7.5-2.1 0-4-0.9-5.3-2.4l-13.7 7v0z" fill="#22A1CE"/></svg><svg xmlns:xlink="http://www.w3.org/1999/xlink" id="icon_twitter" xml:space="preserve" viewBox="0 0 72 72" version="1.1" y="480" x="0px" enable-background="new 0 0 72 72" width="32" height="32"><path d="m36 0c-19.9 0-36 16.1-36 36s16.1 36 36 36 36-16.1 36-36-16.1-36-36-36zm17.8 28.3v1.1c0 2.9-0.5 5.8-1.6 8.7s-2.7 5.6-4.8 8-4.7 4.3-7.8 5.8-6.6 2.3-10.7 2.3c-2.5 0-4.8-0.3-7.1-1s-4.4-1.7-6.3-2.9c0.3 0.1 0.7 0.1 1 0.1h1.1c2 0 3.9-0.3 5.8-1s3.5-1.6 5-2.8c-1.9 0-3.7-0.6-5.1-1.7-1.5-1.1-2.5-2.6-3.1-4.3 0.3 0.1 0.6 0.1 0.8 0.1h0.8c0.4 0 0.8 0 1.2-0.1s0.8-0.1 1.2-0.3c-2-0.4-3.7-1.4-5-3s-2-3.5-2-5.6v-0.1c1.1 0.6 2.5 1 4 1.1-1.1-0.8-2.1-1.8-2.8-3.1s-1.1-2.7-1.1-4.2c0-1.6 0.4-3.1 1.2-4.4 2.2 2.7 4.8 4.8 7.9 6.4s6.4 2.5 10.1 2.7c-0.1-0.3-0.1-0.6-0.1-0.9s0-0.7 0-1c0-1.2 0.2-2.3 0.7-3.4s1.1-2 1.8-2.8c0.8-0.8 1.7-1.4 2.7-1.9 1.1-0.5 2.2-0.7 3.4-0.7 1.3 0 2.5 0.3 3.6 0.8s2 1.2 2.8 2c1-0.2 1.9-0.4 2.8-0.8s1.8-0.8 2.7-1.2c-0.3 1-0.8 1.9-1.5 2.7s-1.5 1.5-2.4 2.1c0.9-0.1 1.8-0.3 2.6-0.5s1.6-0.5 2.4-0.9c-1.1 1.9-2.5 3.4-4.2 4.7z" fill="#22A1CE"/></svg><svg xmlns:xlink="http://www.w3.org/1999/xlink" id="icon_website_link" xml:space="preserve" viewBox="0 0 72 72" version="1.1" y="512" x="0px" enable-background="new 0 0 72 72" width="32" height="32"><path d="m36 0c-19.9 0-36 16.1-36 36s16.1 36 36 36c19.9 0 36-16.1 36-36s-16.1-36-36-36zm-2 53c-4.1 4.1-10.7 4.1-14.8 0s-4.1-10.7 0-14.8l7.4-7.4c4.1-4.1 10.7-4.1 14.8 0 0.6 0.6 1.1 1.4 1.6 2.1l-3.4 3.4c-0.2 0.2-0.4 0.3-0.6 0.4-0.2-0.8-0.7-1.6-1.3-2.2-2-2-5.4-2-7.4 0l-7.4 7.4c-2 2-2 5.4 0 7.4s5.4 2 7.4 0l2.6-2.6c2.1 0.8 4.4 1.1 6.7 0.7l-5.6 5.6zm18.5-18.5l-7.4 7.4c-4.1 4.1-10.7 4.1-14.8 0-0.6-0.6-1.1-1.4-1.6-2.1l3.4-3.4c0.2-0.2 0.4-0.3 0.6-0.4 0.2 0.8 0.7 1.6 1.3 2.2 2 2 5.4 2 7.4 0l7.4-7.4c2-2 2-5.4 0-7.4s-5.4-2-7.4 0l-2.6 2.6c-2.1-0.8-4.4-1.1-6.7-0.7l5.6-5.6c4.1-4.1 10.7-4.1 14.8 0 4 4.1 4 10.8 0 14.8z" fill="#22A1CE"/></svg></svg>
